#N canvas 608 55 1440 809 12;
#X obj 54 705 outlet~;
#X obj 252 227 del 100;
#X obj 174 193 bng 19 250 50 0 empty empty empty 0 -10 0 12 #fcfcfc #000000 #000000;
#X obj 252 256 pack 0 500, f 13;
#X floatatom 333 196 5 0 0 0 - - - 0;
#X obj 175 411 *~;
#X obj 157 447 *~;
#X text 373 196 decay time;
#X text 248 205 sustain;
#X obj 53 637 *~;
#X obj 286 75 loadbang;
#X msg 286 123 100;
#X obj 36 101 mtof;
#X obj 34 25 inlet;
#X obj 333 148 r decay_dial;
#N canvas 3 7 1422 793 fm_voice 0;
#X obj 487 738 osc~ 200;
#X obj 505 585 hsl 162 19 0 127 0 0 empty empty Osc\ 1\ Frequency -2 -10 0 12 #fcfcfc #000000 #000000 0 1;
#X floatatom 501 612 5 0 0 0 - - - 0;
#X obj 501 635 mtof;
#X floatatom 501 671 5 0 0 0 - - - 0;
#X obj 513 330 hsl 162 19 0 127 0 0 empty empty Osc\ 2\ Mod\ Depth -2 -10 0 12 #fcfcfc #000000 #000000 0 1;
#X floatatom 510 364 5 0 0 0 - - - 0;
#X obj 510 387 mtof;
#X floatatom 510 411 5 0 0 0 - - - 0;
#X obj 485 438 *~;
#X obj 272 394 osc~ 200;
#X obj 301 249 hsl 162 19 0 127 0 0 empty empty Osc\ 2\ Frequency -2 -10 0 12 #fcfcfc #000000 #000000 0 1;
#X floatatom 288 282 5 0 0 0 - - - 0;
#X obj 288 305 mtof;
#X floatatom 288 329 5 0 0 0 - - - 0;
#X obj 272 361 +~;
#X obj 290 77 hsl 162 19 0 127 0 0 empty empty Feedback\ Amount -2 -10 0 12 #fcfcfc #000000 #000000 0 1;
#X floatatom 287 108 5 0 0 0 - - - 0;
#X obj 287 131 mtof;
#X floatatom 287 155 5 0 0 0 - - - 0;
#X obj 271 187 *~;
#X obj 272 33 receive~ feedback;
#X text 519 704 FM;
#X text 303 362 FM;
#X obj 485 703 +~;
#X obj 513 503 * 127;
#X floatatom 513 534 5 0 0 0 - - - 0;
#X obj 510 256 * 127;
#X floatatom 510 286 5 0 0 0 - - - 0;
#X obj 486 764 outlet~;
#X obj 200 275 inlet;
#X obj 130 9 inlet;
#X obj 162 41 r feedback_var;
#X obj 123 102 random;
#X obj 162 70 * 9000;
#X obj 510 225 r mod1_dial;
#X obj 514 469 r mod2_dial;
#X text 155 224 inlet sends the frequency of the pitch variation;
#X text 11 25 the inlet recieves the trigger bang and sets of the random every time the instrument is hit;
#X text 394 121;
#X text 335 104 feedback variation and randomness is scaled when switch 2 is active;
#X text 675 586 mod2 controls the oscillator 1 frequency;
#X text 551 737 Sine Osc;
#X text 566 266 mod1 dial controls the modulation depth;
#X text 341 396 Modulating Osc;
#X text 551 387 Modulating Osc mods Carrier Osc;
#X connect 0 0 29 0;
#X connect 1 0 2 0;
#X connect 2 0 3 0;
#X connect 3 0 4 0;
#X connect 4 0 24 1;
#X connect 5 0 6 0;
#X connect 6 0 7 0;
#X connect 7 0 8 0;
#X connect 8 0 9 1;
#X connect 9 0 24 0;
#X connect 10 0 9 0;
#X connect 11 0 12 0;
#X connect 12 0 13 0;
#X connect 13 0 14 0;
#X connect 14 0 15 1;
#X connect 15 0 10 0;
#X connect 16 0 17 0;
#X connect 17 0 18 0;
#X connect 18 0 19 0;
#X connect 19 0 20 1;
#X connect 20 0 15 0;
#X connect 21 0 20 0;
#X connect 24 0 0 0;
#X connect 25 0 26 0;
#X connect 26 0 1 0;
#X connect 27 0 28 0;
#X connect 28 0 5 0;
#X connect 30 0 14 0;
#X connect 31 0 33 0;
#X connect 32 0 34 0;
#X connect 33 0 19 0;
#X connect 34 0 33 1;
#X connect 35 0 27 0;
#X connect 36 0 25 0;
#X restore 140 523 pd fm_voice;
#X obj 139 568 send~ feedback;
#X obj 27 150 r amp_env;
#X obj 27 178 / 100;
#X obj 27 211 sig~;
#X obj 27 249 snapshot~;
#X obj 193 333 pack f 5;
#X obj 192 373 line~;
#X obj 30 304 s amp_mod;
#X text 75 12 the 'next \$1' comes in this inlet \, controlling the trigger of each clone instance;
#X text 73 83 converts midi to frequency and triggers the bang controlling the amplitude envelope;
#X text 428 143 control data for the decay of the envelope;
#X text 464 199 0 - 1000ms. default is set to 100ms;
#X text 243 354 the amplitude is controlled by a snapshot of the envelope following of the contact microphones amplitude;
#X text 198 436 used to create and exponetial curve instead of linear - this sounds more natural;
#X text 250 554 sends the audio signal back to the start of the FM audio chain;
#X text 97 239 snapshots the amplitude every time the threshold is met;
#X obj 373 81 + 100;
#X obj 362 19 r 3-var;
#X obj 370 53 * 300;
#X text 420 56 change to long sustain mode.;
#X text 261 281 this is the amplitude envelope it has a 5ms attack and a variable sustain;
#X connect 1 0 3 0;
#X connect 2 0 1 0;
#X connect 2 0 20 0;
#X connect 2 0 21 0;
#X connect 2 0 15 0;
#X connect 3 0 22 0;
#X connect 4 0 3 1;
#X connect 5 0 6 0;
#X connect 5 0 6 1;
#X connect 6 0 9 1;
#X connect 9 0 0 0;
#X connect 10 0 11 0;
#X connect 11 0 4 0;
#X connect 12 0 2 0;
#X connect 12 0 15 1;
#X connect 13 0 12 0;
#X connect 14 0 4 0;
#X connect 15 0 16 0;
#X connect 15 0 9 0;
#X connect 17 0 18 0;
#X connect 18 0 19 0;
#X connect 19 0 20 0;
#X connect 20 0 21 0;
#X connect 20 0 23 0;
#X connect 21 0 22 0;
#X connect 22 0 5 0;
#X connect 22 0 5 1;
#X connect 32 0 1 1;
#X connect 33 0 34 0;
#X connect 34 0 32 0;
