#N canvas 24 25 1422 791 12;
#X obj 33 448 snapshot~;
#X obj 35 713 print ANALOG_INPUT-1;
#X obj 182 450 snapshot~;
#X obj 331 452 snapshot~;
#X obj 479 422 snapshot~;
#X obj 625 445 snapshot~;
#X obj 778 427 snapshot~;
#X obj 928 415 snapshot~;
#X obj 188 714 print ANALOG_INPUT-2;
#X obj 337 716 print ANALOG_INPUT-3;
#X obj 485 725 print ANALOG_INPUT-4;
#X obj 632 722 print ANALOG_INPUT-5;
#X obj 787 725 print ANALOG_INPUT-6;
#X obj 943 717 print ANALOG_INPUT-7;
#X obj 18 36 inlet;
#X obj 108 38 inlet~;
#X obj 182 38 inlet~;
#X obj 250 36 inlet~;
#X obj 326 39 inlet~;
#X obj 395 39 inlet~;
#X obj 452 39 inlet~;
#X obj 516 39 inlet~;
#X obj 110 73 lop~ 50;
#X obj 182 71 lop~ 50;
#X obj 252 69 lop~ 50;
#X obj 321 70 lop~ 50;
#X obj 395 71 lop~ 50;
#X obj 455 68 lop~ 50;
#X obj 517 69 lop~ 50;
#X obj 19 135 metro 50;
#N canvas 373 124 450 300 trunc 0;
#X obj 57 87 int;
#X obj 53 41 * 100;
#X obj 54 134 * 0.01;
#X obj 52 11 inlet;
#X obj 52 179 outlet;
#X connect 0 0 2 0;
#X connect 1 0 0 0;
#X connect 2 0 4 0;
#X connect 3 0 1 0;
#X restore 932 455 pd trunc;
#N canvas 373 124 450 300 trunc 0;
#X obj 57 87 int;
#X obj 53 41 * 100;
#X obj 54 134 * 0.01;
#X obj 52 11 inlet;
#X obj 52 179 outlet;
#X connect 0 0 2 0;
#X connect 1 0 0 0;
#X connect 2 0 4 0;
#X connect 3 0 1 0;
#X restore 771 463 pd trunc;
#N canvas 373 124 450 300 trunc 0;
#X obj 57 87 int;
#X obj 53 41 * 100;
#X obj 54 134 * 0.01;
#X obj 52 11 inlet;
#X obj 52 179 outlet;
#X connect 0 0 2 0;
#X connect 1 0 0 0;
#X connect 2 0 4 0;
#X connect 3 0 1 0;
#X restore 624 476 pd trunc;
#N canvas 373 124 450 300 trunc 0;
#X obj 57 87 int;
#X obj 53 41 * 100;
#X obj 54 134 * 0.01;
#X obj 52 11 inlet;
#X obj 52 179 outlet;
#X connect 0 0 2 0;
#X connect 1 0 0 0;
#X connect 2 0 4 0;
#X connect 3 0 1 0;
#X restore 484 468 pd trunc;
#N canvas 373 124 450 300 trunc 0;
#X obj 57 87 int;
#X obj 53 41 * 100;
#X obj 54 134 * 0.01;
#X obj 52 11 inlet;
#X obj 52 179 outlet;
#X connect 0 0 2 0;
#X connect 1 0 0 0;
#X connect 2 0 4 0;
#X connect 3 0 1 0;
#X restore 333 477 pd trunc;
#N canvas 373 124 450 300 trunc 0;
#X obj 57 87 int;
#X obj 53 41 * 100;
#X obj 54 134 * 0.01;
#X obj 52 11 inlet;
#X obj 52 179 outlet;
#X connect 0 0 2 0;
#X connect 1 0 0 0;
#X connect 2 0 4 0;
#X connect 3 0 1 0;
#X restore 182 477 pd trunc;
#N canvas 373 124 450 300 trunc 0;
#X obj 57 87 int;
#X obj 16 48 * 100;
#X obj 54 134 * 0.01;
#X obj 15 10 inlet;
#X obj 52 179 outlet;
#X text 64 10 Analog value - 0 - 1;
#X text 66 49 Value between 0 - 100;
#X text 108 135;
#X text 91 88 Int truncates value;
#X text 109 136 Value is between 0 - 1 but to two decimal places;
#X connect 0 0 2 0;
#X connect 1 0 0 0;
#X connect 2 0 4 0;
#X connect 3 0 1 0;
#X restore 34 473 pd trunc;
#X obj 618 575 outlet;
#X obj 779 594 s fx_amt;
#X obj 939 540 s volume_dial;
#X obj 34 537 * 1000;
#X obj 36 595 s decay_dial;
#X obj 482 577 s rand_dial;
#X text 577 41 inlets and low pass filtering for all the analog inputs - potentiometers;
#X text 93 140 metro object used alongside snapshot~ to convert signal data to control data;
#X obj 180 590 s mod1_dial;
#X obj 329 584 s mod2_dial;
#X text 614 599 delay time dial;
#X text 397 673 debugging prints to the Bela IDE console;
#X text 1005 451 truncating subpatch to translate the control data to a stable two decimal place float - first subpatch has more info;
#X connect 0 0 36 0;
#X connect 2 0 35 0;
#X connect 3 0 34 0;
#X connect 4 0 33 0;
#X connect 5 0 32 0;
#X connect 6 0 31 0;
#X connect 7 0 30 0;
#X connect 14 0 29 0;
#X connect 15 0 22 0;
#X connect 16 0 23 0;
#X connect 17 0 24 0;
#X connect 18 0 25 0;
#X connect 19 0 26 0;
#X connect 20 0 27 0;
#X connect 21 0 28 0;
#X connect 22 0 0 0;
#X connect 23 0 2 0;
#X connect 24 0 3 0;
#X connect 25 0 4 0;
#X connect 26 0 5 0;
#X connect 27 0 6 0;
#X connect 28 0 7 0;
#X connect 29 0 0 0;
#X connect 29 0 2 0;
#X connect 29 0 3 0;
#X connect 29 0 4 0;
#X connect 29 0 5 0;
#X connect 29 0 6 0;
#X connect 29 0 7 0;
#X connect 30 0 39 0;
#X connect 31 0 38 0;
#X connect 32 0 37 0;
#X connect 33 0 42 0;
#X connect 34 0 46 0;
#X connect 35 0 45 0;
#X connect 36 0 40 0;
#X connect 40 0 41 0;
