#N canvas 333 4 1043 800 12;
#X obj 203 436 catch~ delay;
#X obj 39 601 *~ 0.5;
#X obj 40 639 lop~ 6000;
#X obj 40 703 throw~ out1;
#X obj 264 602 *~ 0.5;
#X obj 236 638 lop~ 6000;
#X obj 230 709 throw~ out2;
#X obj 411 440 catch~ delay2;
#X obj 135 667 throw~ delay;
#X obj 332 672 throw~ delay2;
#X text 280 412 feedback stereo delays;
#X obj 204 470 delwrite~ del1Buff 1000;
#X obj 39 57 inlet;
#X obj 42 291 * 1000;
#X obj 113 293 * 1010;
#X obj 411 471 delwrite~ del2Buff 1010;
#N canvas 201 197 632 566 wavefold 0;
#X obj 46 59 *~;
#X obj 48 166 expr~ if($v1 > 1 \, 2-$v1 \, $v1);
#X obj 49 195 expr~ if($v1 < -1 \, -2-$v1 \, $v1);
#X obj 48 234 expr~ if($v1 > 1 \, 2-$v1 \, $v1);
#X obj 49 268 expr~ if($v1 < -1 \, -2-$v1 \, $v1);
#X obj 47 465 outlet~;
#X obj 44 15 inlet~;
#X obj 140 24 hsl 162 19 1 7 0 0 empty empty Fold\ Amount -2 -10 0 12 #fcfcfc #000000 #000000 0 1;
#X floatatom 137 56 5 0 0 0 - - - 0;
#X obj 388 71 * 7;
#X obj 402 16 r dist_amt;
#X connect 0 0 1 0;
#X connect 1 0 2 0;
#X connect 2 0 3 0;
#X connect 3 0 4 0;
#X connect 4 0 5 0;
#X connect 6 0 0 0;
#X connect 7 0 0 1;
#X connect 7 0 8 0;
#X connect 9 0 7 0;
#X connect 10 0 9 0;
#X restore 429 133 pd wavefold;
#X obj 427 71 inlet~;
#X obj 430 182 outlet~;
#X obj 46 375 pack f 50;
#X obj 130 374 pack f 50;
#X obj 40 553 delread4~ del1Buff 150;
#X obj 45 428 line~;
#X obj 125 419 line~;
#X obj 244 553 delread4~ del2Buff 150;
#X text 406 493 right channel delay buffer;
#X text 201 492 left channel delay buffer;
#X text 132 527 reads the delaywrite buffers;
#X text 34 264 delay dial is slightly offset for a stereo effect;
#X text 132 327 goes from 0 - 1000ms (roughly);
#X text 20 394 line being used to smooth the input by 50ms;
#X text 45 577 using delread4 for variable delay lines;
#X text 515 133 patch for the distortion/wavefold;
#X connect 0 0 11 0;
#X connect 1 0 2 0;
#X connect 2 0 3 0;
#X connect 2 0 8 0;
#X connect 4 0 5 0;
#X connect 5 0 6 0;
#X connect 5 0 9 0;
#X connect 7 0 15 0;
#X connect 12 0 13 0;
#X connect 12 0 14 0;
#X connect 13 0 19 0;
#X connect 14 0 20 0;
#X connect 16 0 18 0;
#X connect 17 0 16 0;
#X connect 19 0 22 0;
#X connect 20 0 23 0;
#X connect 21 0 1 0;
#X connect 22 0 21 0;
#X connect 23 0 24 0;
#X connect 24 0 4 0;
