#N canvas 0 7 1422 791 12;
#X obj 28 32 inlet;
#X obj 39 743 outlet;
#X obj 116 760 outlet;
#X obj 184 763 outlet;
#X obj 243 764 outlet;
#X obj 325 765 outlet;
#X obj 382 766 outlet;
#X obj 226 114 s bela_setDigital;
#X obj 866 135 r bela_digitalIn14;
#X msg 222 60 in 11 \, in 12 \, in 13 \, in 14 \, out 15 \, out 16 \, out 17 \, out 18 \, out 19 \, out 20;
#X obj 41 178 r bela_digitalIn11;
#X obj 180 177 r bela_digitalIn12;
#X obj 41 202 sel 1;
#X msg 41 251 1;
#X obj 181 202 sel 1;
#X msg 182 252 1;
#X msg 80 255 0;
#X msg 219 254 0;
#X obj 317 177 r bela_digitalIn13;
#X floatatom 887 607 5 0 0 0 - - - 0;
#X obj 887 509 bng 19 250 50 0 empty empty empty 0 -10 0 12 #fcfcfc #000000 #000000;
#X obj 975 512 bng 19 250 50 0 empty empty empty 0 -10 0 12 #fcfcfc #000000 #000000;
#X obj 1105 510 bng 19 250 50 0 empty empty empty 0 -10 0 12 #fcfcfc #000000 #000000;
#X msg 869 550 1;
#X msg 910 552 0;
#X msg 1005 551 0;
#X msg 1121 547 0;
#X floatatom 983 607 5 0 0 0 - - - 0;
#X floatatom 1116 603 5 0 0 0 - - - 0;
#X msg 858 409 0;
#X msg 903 408 1;
#X msg 949 410 2;
#X obj 872 212 sel 1;
#X obj 926 166 tgl 19 0 empty empty empty 0 -10 0 12 #fcfcfc #000000 #000000 0 1;
#X obj 875 242 i;
#X obj 875 281 + 1;
#X floatatom 871 310 16 0 0 0 - - - 0;
#X obj 867 336 % 3;
#X obj 923 442 sel 0 1 2;
#X obj 869 375 sel 0 1 2;
#X msg 958 214 0;
#X floatatom 734 756 5 0 0 0 - - - 0;
#X msg 788 681 1 \$1;
#X floatatom 760 548 5 0 1 0 - - - 0;
#X obj 779 728 route;
#X msg 964 549 1;
#X msg 1080 545 1;
#X obj 841 655 sel 1 0;
#X msg 844 688 1;
#X msg 882 716 0;
#X floatatom 943 753 5 0 0 0 - - - 0;
#X msg 953 672 1 \$1;
#X obj 951 722 route;
#X obj 1006 646 sel 1 0;
#X msg 1009 679 1;
#X msg 1047 707 0;
#X floatatom 1104 751 5 0 0 0 - - - 0;
#X msg 1112 678 1 \$1;
#X obj 1113 723 route;
#X obj 1165 652 sel 1 0;
#X msg 1168 685 1;
#X msg 1218 693 0;
#X obj 732 780 s del_amt;
#X obj 943 779 s rev_amt;
#X obj 1103 780 s dist_amt;
#X obj 747 450 r fx_amt;
#X floatatom 63 508 5 0 0 0 - - - 0;
#X msg 42 399 1 \$1;
#X obj 60 449 route;
#X obj 96 374 sel 1 0;
#X msg 99 407 1;
#X msg 136 406 0;
#X floatatom 57 299 5 0 0 0 - - - 0;
#X floatatom 194 525 5 0 0 0 - - - 0;
#X msg 189 409 1 \$1;
#X obj 193 480 route;
#X obj 243 406 sel 1 0;
#X msg 227 440 1;
#X msg 263 435 0;
#X floatatom 190 309 5 0 0 0 - - - 0;
#X obj 185 339 r rand_dial;
#X obj 63 558 s pitch_var;
#X obj 190 562 s feedback_var;
#X text 648 62 initialises the digital ins and outs for the switches and the LED's;
#X text 1019 335 logic for using the effects switch on the instrument. Routes the fx-amt to the various functions that need to be modulated - depending on what effect is active.;
#X text 512 251 logic for the numbered switches routes the 'rand' dial to different aspects of the patch;
#X text 42 580 switch 1 controls the variation of pitchs;
#X text 183 584 switch 2 controls the variation of the feedback back into the fm synth engine;
#X text 146 721 outlets for the LED logic;
#X obj 323 227 sel 1;
#X obj 326 257 i;
#X obj 326 296 + 1;
#X floatatom 322 325 16 0 0 0 - - - 0;
#X obj 325 356 % 2;
#X obj 335 391 sel 0 1;
#X msg 337 427 1;
#X msg 374 429 0;
#X msg 478 215 1;
#X obj 367 545 print 3_SWITCH;
#X floatatom 368 490 5 0 0 0 - - - 0;
#X obj 388 520 s 3-var;
#X text 404 454 3 switch is an on and off switch to go to a longer sustain mode;
#X connect 0 0 9 0;
#X connect 0 0 13 0;
#X connect 0 0 40 0;
#X connect 0 0 23 0;
#X connect 0 0 97 0;
#X connect 8 0 32 0;
#X connect 9 0 7 0;
#X connect 10 0 12 0;
#X connect 11 0 14 0;
#X connect 12 0 13 0;
#X connect 12 0 17 0;
#X connect 13 0 1 0;
#X connect 13 0 72 0;
#X connect 14 0 15 0;
#X connect 14 0 16 0;
#X connect 15 0 2 0;
#X connect 15 0 79 0;
#X connect 16 0 1 0;
#X connect 16 0 72 0;
#X connect 17 0 2 0;
#X connect 17 0 79 0;
#X connect 18 0 89 0;
#X connect 19 0 47 0;
#X connect 19 0 4 0;
#X connect 20 0 23 0;
#X connect 20 0 25 0;
#X connect 20 0 26 0;
#X connect 21 0 45 0;
#X connect 21 0 24 0;
#X connect 21 0 26 0;
#X connect 22 0 46 0;
#X connect 22 0 24 0;
#X connect 22 0 25 0;
#X connect 23 0 19 0;
#X connect 24 0 19 0;
#X connect 25 0 27 0;
#X connect 26 0 28 0;
#X connect 27 0 53 0;
#X connect 27 0 5 0;
#X connect 28 0 59 0;
#X connect 28 0 6 0;
#X connect 29 0 38 0;
#X connect 30 0 38 0;
#X connect 31 0 38 0;
#X connect 32 0 34 0;
#X connect 33 0 32 0;
#X connect 34 0 35 0;
#X connect 35 0 36 0;
#X connect 35 0 34 1;
#X connect 36 0 37 0;
#X connect 37 0 39 0;
#X connect 38 0 20 0;
#X connect 38 1 21 0;
#X connect 38 2 22 0;
#X connect 39 0 29 0;
#X connect 39 1 30 0;
#X connect 39 2 31 0;
#X connect 40 0 34 1;
#X connect 40 0 38 0;
#X connect 41 0 62 0;
#X connect 42 0 44 0;
#X connect 43 0 42 0;
#X connect 43 0 51 0;
#X connect 43 0 57 0;
#X connect 44 0 41 0;
#X connect 45 0 27 0;
#X connect 46 0 28 0;
#X connect 47 0 48 0;
#X connect 47 1 49 0;
#X connect 48 0 44 1;
#X connect 49 0 44 1;
#X connect 50 0 63 0;
#X connect 51 0 52 0;
#X connect 52 0 50 0;
#X connect 53 0 54 0;
#X connect 53 1 55 0;
#X connect 54 0 52 1;
#X connect 55 0 52 1;
#X connect 56 0 64 0;
#X connect 57 0 58 0;
#X connect 58 0 56 0;
#X connect 59 0 60 0;
#X connect 59 1 61 0;
#X connect 60 0 58 1;
#X connect 61 0 58 1;
#X connect 65 0 43 0;
#X connect 66 0 81 0;
#X connect 67 0 68 0;
#X connect 68 0 66 0;
#X connect 69 0 70 0;
#X connect 69 1 71 0;
#X connect 70 0 68 1;
#X connect 71 0 68 1;
#X connect 72 0 69 0;
#X connect 73 0 82 0;
#X connect 74 0 75 0;
#X connect 75 0 73 0;
#X connect 76 0 77 0;
#X connect 76 1 78 0;
#X connect 77 0 75 1;
#X connect 78 0 75 1;
#X connect 79 0 76 0;
#X connect 80 0 67 0;
#X connect 80 0 74 0;
#X connect 89 0 90 0;
#X connect 90 0 91 0;
#X connect 91 0 92 0;
#X connect 91 0 90 1;
#X connect 92 0 93 0;
#X connect 93 0 94 0;
#X connect 94 0 95 0;
#X connect 94 1 96 0;
#X connect 95 0 3 0;
#X connect 95 0 99 0;
#X connect 96 0 3 0;
#X connect 96 0 99 0;
#X connect 97 0 90 1;
#X connect 99 0 98 0;
#X connect 99 0 100 0;
